<svg xmlns="http://www.w3.org/2000/svg" width="638.9" height="1058.363" viewBox="0 0 638.9 1058.363">
  <g id="logo" transform="translate(-50.7 -10.681)">
    <path id="Path_285" data-name="Path 285" d="M689.6,218.9V895.1c-1.2-1-2.3-1.7-3.2-2.6-19.1-18.9-38.2-37.8-57.5-56.5-2.7-2.6-3-5.4-3-8.7V328.2c-2.3.8-4.1,1.3-5.9,2Q498.2,379.1,376.4,428a15.611,15.611,0,0,1-12.7.1q-121.5-49.05-243-97.8c-1.6-.7-3.3-1.2-6.1-2.1v7.9q0,244.8.1,489.7c0,5.1-1.3,8.7-5,12.3-18.2,17.8-36.1,35.8-54.1,53.8a53.2,53.2,0,0,0-3.7,4.6c-.4-.3-.8-.5-1.2-.8V218.9c3.7,1.5,7.1,2.9,10.5,4.4q151.5,66.15,303,132.3a13.134,13.134,0,0,0,11.6,0q153.75-67.2,307.5-134.1C685.2,220.7,687.2,219.9,689.6,218.9Z" fill="#fff"/>
    <path id="Path_286" data-name="Path 286" d="M561.1,421.1c0,20.7-1,40.7.4,60.6.9,12.7-3.6,18-15.1,22.8-57.7,24-114.9,49.1-172.2,73.9a11.437,11.437,0,0,1-10.2,0c-38.4-16.8-77-33.4-115.5-50.1-1.9-.8-3.9-1.6-6.3-2.6v253q44.1,19.05,88.3,38c11.6,5,23.1,10.1,34.8,14.8a10.763,10.763,0,0,0,7.5.1c40.7-17,81.3-34.2,122-51.3,2.6-1.1,3.9-2.3,3.9-5.4q-.15-46.8-.1-93.6a23.251,23.251,0,0,0-.3-2.9c-42.9,18.9-85.5,37.7-128.6,56.7-.2-1.8-.5-3.2-.5-4.5q0-31.95-.1-63.8c0-3.2,1-4.7,4-6q92.25-39.15,184.3-78.6a37.477,37.477,0,0,1,3.9-1.2v5.8q0,120.45.1,240.8c0,4.4-1.3,6.5-5.4,8.3q-91.05,38.55-181.8,77.6c-3.3,1.4-6.1,1.7-9.6.1q-91.35-39.15-182.8-78.1c-3.2-1.3-4.7-2.7-4.7-6.6q.15-201.75.1-403.6v-4.1c2.4,1,4.3,1.7,6.2,2.5q90.6,38.7,181.2,77.6a10.381,10.381,0,0,0,9.1.1q90.6-39,181.2-77.7C556.6,422.9,558.6,422.1,561.1,421.1Z" fill="#fff"/>
    <path id="Path_287" data-name="Path 287" d="M51.6,149.8c33.4-14.6,66.5-29.2,99.6-43.7q107.1-46.95,214.1-94c3.9-1.7,7-2,11.1-.2Q531.05,80.15,685.8,148.1c1.1.5,2.3,1,3.8,1.7-33.9,14.9-67.5,29.7-101.1,44.5Q482,241.1,375.4,287.9c-2.3,1-5.7,1.3-7.9.3Q210.6,219.65,53.9,150.8A13.324,13.324,0,0,1,51.6,149.8Z" fill="#fff"/>
    <path id="Path_288" data-name="Path 288" d="M87.6,948.7c.8-1,1.4-1.8,2.1-2.6,18.4-18.3,36.9-36.6,55.1-55.1,2.9-2.9,4.9-1.6,7.5-.5q106.2,45.75,212.3,91.4c4.2,1.8,7.5,1.7,11.7-.1,69.8-30.1,139.6-59.9,209.4-90,4.6-2,7.1-1.4,10.5,2.1,16.9,17.2,34.2,34.2,51.3,51.2,1.3,1.3,2.9,2.1,5.1,3.7-2.9,1.5-4.4,2.3-5.9,2.9q-136.05,58.35-272.1,116.5a10.8,10.8,0,0,1-7.5.3q-138.15-58.95-276-118.3C90.1,949.9,89,949.3,87.6,948.7Z" fill="#fff"/>
  </g>
</svg>
